<?xml version="1.0" encoding="UTF-8" standalone="no"?>
<!-- Created with Inkscape (http://www.inkscape.org/) -->

<svg
   xmlns:dc="http://purl.org/dc/elements/1.1/"
   xmlns:cc="http://creativecommons.org/ns#"
   xmlns:rdf="http://www.w3.org/1999/02/22-rdf-syntax-ns#"
   xmlns:svg="http://www.w3.org/2000/svg"
   xmlns="http://www.w3.org/2000/svg"
   xmlns:sodipodi="http://sodipodi.sourceforge.net/DTD/sodipodi-0.dtd"
   xmlns:inkscape="http://www.inkscape.org/namespaces/inkscape"
   width="310"
   height="48"
   id="svg3054"
   version="1.1"
   inkscape:version="0.48.5 r10040"
   sodipodi:docname="projetoejovem_branca.svg">
  <defs
     id="defs3056" />
  <sodipodi:namedview
     id="base"
     pagecolor="#ffffff"
     bordercolor="#666666"
     borderopacity="1.0"
     inkscape:pageopacity="0.0"
     inkscape:pageshadow="2"
     inkscape:zoom="2.3773219"
     inkscape:cx="223.14348"
     inkscape:cy="108.16963"
     inkscape:document-units="px"
     inkscape:current-layer="layer1"
     showgrid="false"
     inkscape:window-width="1280"
     inkscape:window-height="1004"
     inkscape:window-x="1364"
     inkscape:window-y="-3"
     inkscape:window-maximized="1"
     width="300px" />
  <metadata
     id="metadata3059">
    <rdf:RDF>
      <cc:Work
         rdf:about="">
        <dc:format>image/svg+xml</dc:format>
        <dc:type
           rdf:resource="http://purl.org/dc/dcmitype/StillImage" />
        <dc:title />
      </cc:Work>
    </rdf:RDF>
  </metadata>
  <g
     id="layer1"
     inkscape:label="Layer 1"
     inkscape:groupmode="layer"
     transform="translate(0,-12)">
    <path
       style="fill:#ffffff"
       d="m 155.00021,58.298263 c -0.0503,-0.02372 -0.87823,-0.08282 -1.83918,-0.131371 -1.88251,-0.09504 -2.58565,-0.232936 -4.5523,-0.892417 -1.27143,-0.426339 -3.85892,-1.703539 -5.01211,-2.473936 -5.54528,-3.704694 -9.11835,-9.472562 -9.9385,-16.043434 -0.17775,-1.424459 -0.17253,-4.645329 0.0103,-6.045442 0.31035,-2.382694 0.9943,-4.687089 2.02402,-6.819871 1.18286,-2.449949 2.51555,-4.331917 4.40729,-6.223562 2.79327,-2.793278 6.11992,-4.731385 9.95594,-5.800353 1.38699,-0.386527 3.12621,-0.539256 6.14065,-0.539256 3.01434,0 4.75346,0.152729 6.14056,0.539256 3.78583,1.05499 7.14092,2.996668 9.86706,5.710395 1.92335,1.914574 3.1688,3.638721 4.35546,6.029103 1.12085,2.257923 1.83661,4.608872 2.16432,7.107922 0.16607,1.26708 0.1908,4.489468 0.0452,5.835011 -0.53298,4.912647 -2.89046,9.804695 -6.42895,13.341141 -1.83519,1.834006 -3.63887,3.118288 -6.02724,4.291346 -2.60679,1.28035 -4.55836,1.851884 -6.75934,1.979653 -1.96408,0.114005 -4.44124,0.187911 -4.55229,0.135815 z m 3.63526,-1.836101 c 8.05755,-1.072825 14.74524,-6.560742 17.28418,-14.183297 0.82035,-2.463293 1.17474,-4.837705 1.07498,-7.203834 -0.39011,-9.248401 -6.85139,-17.182028 -15.84627,-19.457481 -1.78285,-0.450981 -3.13843,-0.620943 -4.95258,-0.620943 -11.06068,0 -20.33679,8.954133 -20.80059,20.078424 -0.2534,6.080614 2.51062,12.332677 7.26009,16.421824 3.10208,2.670683 6.94221,4.400045 11.01142,4.958893 1.17801,0.161771 3.7769,0.165126 4.96877,0.0062 z m -3.72722,-1.402411 c -0.88389,-0.0584 -2.39926,-0.316984 -3.40271,-0.580762 -3.97109,-1.043945 -7.16236,-3.288833 -9.81749,-6.906155 -4.52941,-6.170859 -5.47548,-14.519955 -2.3697,-20.912533 1.72148,-3.543221 4.73396,-6.452743 8.55654,-8.263903 2.60494,-1.234237 4.91377,-1.780031 7.9159,-1.871241 2.63471,-0.08005 4.57683,0.179311 6.75051,0.901438 5.45136,1.811068 9.3852,5.850583 11.26842,11.571066 0.44861,1.362498 0.89927,3.366342 0.94022,4.18084 l 0.0226,0.448548 -11.42535,5.894541 -11.42524,5.894518 0.25166,0.203676 c 0.86284,0.69846 2.4869,1.420507 3.79415,1.686902 1.57028,0.31999 3.01732,0.196491 4.84091,-0.413121 3.21303,-1.074088 6.09035,-3.615196 6.97824,-6.162729 0.0985,-0.282724 0.1641,-0.759805 0.17026,-1.238744 l 0.0103,-0.778924 3.21878,-1.772376 c 2.1509,-1.184378 3.29506,-1.764995 3.44859,-1.750103 l 0.22989,0.02238 -0.0153,1.471422 c -0.042,3.792158 -0.86274,6.962143 -2.54459,9.819639 -1.70956,2.905025 -4.23281,5.187837 -7.44389,6.734952 -3.02019,1.455063 -6.32673,2.060045 -9.95174,1.820746 z m 2.78957,-21.226234 c 5.01353,-2.832505 9.11641,-5.191388 9.11765,-5.241965 0.0102,-0.189883 -1.63619,-2.041921 -2.36171,-2.666035 -3.17752,-2.733145 -7.64351,-3.514441 -11.76999,-2.059039 -3.23962,1.142627 -5.79734,3.619035 -6.97813,6.756023 -0.50752,1.348313 -0.82651,4.527863 -0.59425,5.923964 0.15097,0.907637 0.59239,2.285325 0.9783,3.053279 l 0.30965,0.616232 1.0916,-0.616232 c 0.6004,-0.338926 5.19345,-2.933721 10.20688,-5.766227 z M 61.626786,56.214386 c -0.11043,-0.372519 -0.20075,-0.796445 -0.20055,-0.942062 l 0,-0.264783 0.73629,0.06425 c 1.0876,0.09483 1.63003,-0.08549 2.29241,-0.762535 1.53449,-1.568227 1.76213,-3.408258 1.89596,-15.32572 0.0647,-5.784886 -0.0297,-9.102745 -0.27076,-9.470398 -0.20525,-0.31338 -0.67306,-0.414648 -1.91791,-0.415244 l -1.08051,-8.31e-4 0,-0.819044 0,-0.819055 0.48278,-0.06116 c 1.83878,-0.232773 3.3985,-0.596475 5.1875,-1.209658 0.74799,-0.256387 1.32736,-0.403512 1.51743,-0.385315 l 0.30729,0.02945 -0.0175,1.333485 c -0.0102,0.733417 -0.0646,2.16117 -0.12326,3.172764 -0.0585,1.011616 -0.14061,5.232781 -0.18259,9.380368 -0.0769,7.593633 -0.10458,8.197323 -0.46277,10.097794 -0.6276,3.329774 -2.47562,5.766853 -5.12366,6.756967 -0.49644,0.185561 -0.84149,0.240368 -1.7301,0.274739 l -1.11007,0.04291 -0.20076,-0.677289 z m 134.788524,-0.696398 -0.24466,-0.03757 -0.0103,-1.924857 c 0,-1.853651 0,-1.928624 0.18608,-2.026588 0.26694,-0.142936 0.7602,-0.05911 1.45708,0.247716 0.51245,0.225537 0.71618,0.263234 1.42548,0.263778 0.67256,8.31e-4 0.89661,-0.03644 1.19557,-0.19723 0.79767,-0.428977 1.142,-1.037931 1.39971,-2.474952 0.15211,-0.848398 0.1637,-1.891203 0.1637,-14.845099 0,-14.39069 -0.0195,-15.236337 -0.36855,-15.91112 -0.27455,-0.530778 -1.37128,-0.817608 -3.1491,-0.823539 l -0.85072,-0.002 0,-0.850676 0,-0.850667 6.5754,0 6.57551,0 0,0.848911 c 0,0.988791 0.11383,0.903564 -1.31257,0.982181 -1.95455,0.107692 -2.50846,0.32777 -2.73662,1.087195 -0.0924,0.306617 -0.13157,3.217789 -0.18043,13.313409 -0.0554,11.537647 -0.0801,13.027237 -0.21974,13.913404 -0.4325,2.732694 -1.45564,4.781286 -3.31833,6.643937 -1.37058,1.370585 -2.79687,2.259657 -4.12935,2.573869 -0.51758,0.122083 -1.87501,0.16101 -2.46413,0.07061 z M 1.5808564,45.88548 c -0.15436,-0.18087 -0.1522,-1.314003 0,-1.468815 0.079,-0.07862 0.53257,-0.133403 1.37005,-0.165352 2.0293698,-0.07749 2.2178098,-0.254029 2.4006998,-2.250432 0.16719,-1.825282 0.15487,-21.26782 -0.0144,-22.191919 -0.17787,-0.97316 -0.39288,-1.354965 -0.88563,-1.572959 -0.43085,-0.190559 -1.4392198,-0.350831 -2.2365798,-0.35545 -0.29805,-0.002 -0.54067,-0.05419 -0.62073,-0.134224 -0.16052,-0.160518 -0.18197,-1.293611 -0.0277,-1.458881 0.079,-0.08447 1.04142,-0.102747 4.0234398,-0.07625 2.17541,0.01929 5.4954998,-0.01868 7.4603098,-0.08539 2.7672,-0.09391 3.84208,-0.09658 4.92014,-0.01222 3.01208,0.235738 4.76434,0.872404 6.12433,2.225153 1.23047,1.223984 1.73399,2.564303 1.73697,4.623846 0,2.361819 -0.74348,4.242338 -2.36508,5.954149 -1.55356,1.640019 -3.79949,2.794797 -6.08318,3.127751 -1.48613,0.216659 -4.95319,-0.03623 -5.16359,-0.376655 -0.0893,-0.144056 -0.45702,-1.581723 -0.45702,-1.785471 0,-0.192006 0.25453,-0.180162 1.29174,0.06004 1.31135,0.303692 2.99546,0.283801 4.00331,-0.04731 2.19041,-0.7195 3.55933,-2.45577 3.90459,-4.952202 0.36137,-2.612688 -0.81789,-5.016381 -2.96262,-6.039143 -1.88599,-0.899355 -4.1976,-1.027472 -6.78201,-0.375863 -0.57793,0.145718 -1.08812,0.302265 -1.13368,0.347906 -0.3409498,0.340866 -0.3242198,22.028077 0.0185,24.053576 0.1677,0.991725 0.65347,1.228818 2.69474,1.315584 l 1.26455,0.05368 0,0.868339 0,0.86836 -1.21847,-0.07513 c -1.42927,-0.08806 -8.6716898,-0.08857 -10.1390396,-8.32e-4 -0.82928,0.04968 -1.03239,0.03623 -1.12661,-0.0742 z M 96.368463,45.82924 c -1.33464,-0.196491 -2.54797,-0.984756 -3.063387,-1.990059 -0.40921,-0.798282 -0.42388,-1.085614 -0.42532,-8.293911 l 0,-6.840902 -0.98866,0.06076 c -0.54365,0.03336 -1.26979,0.086 -1.6134,0.116806 l -0.62483,0.05604 0.0277,-0.710356 0.0277,-0.710356 1.05755,-0.481021 c 0.58172,-0.264549 1.3019,-0.59786 1.60046,-0.740696 l 0.54293,-0.259682 -0.0646,-3.334084 -0.0647,-3.334085 1.781707,-0.882945 c 0.97984,-0.48563 1.84074,-0.881466 1.91299,-0.879659 0.0719,0.002 0.25196,0.101914 0.39945,0.222509 l 0.26807,0.219194 -0.10643,2.375489 c -0.0585,1.306523 -0.13383,3.096027 -0.16729,3.976662 l -0.0606,1.601182 2.83247,-0.05543 2.832467,-0.05542 -0.0585,0.818069 c -0.0319,0.449945 -0.0852,1.04763 -0.11814,1.328178 l -0.0596,0.510087 -2.700277,0 -2.70029,0 0,5.402896 c 0,5.682725 0.0483,6.618668 0.37543,7.378956 0.38201,0.888035 1.35425,1.480403 2.20601,1.344188 0.44019,-0.0704 1.137477,-0.4069 1.533437,-0.740141 0.15354,-0.129256 0.36363,-0.235008 0.46678,-0.235008 0.23647,0 0.84354,0.725935 0.84354,1.008659 0,0.12666 -0.39493,0.702463 -1.01001,1.472378 -0.99678,1.247836 -1.01699,1.266278 -1.540417,1.411125 -1.17424,0.324927 -2.24388,0.401994 -3.3398,0.240635 z m 14.856797,0.03726 c -3.63488,-0.431594 -6.37774,-2.617581 -7.48259,-5.963345 -0.42778,-1.295273 -0.5182,-2.017125 -0.51327,-4.092411 0.0102,-1.834211 0.0226,-2.041224 0.24447,-2.861828 0.99492,-3.673544 3.74201,-6.165132 7.65942,-6.946931 1.16161,-0.231818 4.00363,-0.230617 5.08517,0.002 2.89447,0.622934 4.88483,2.049885 6.12958,4.394626 0.70612,1.330106 1.06194,2.958559 1.06194,4.8602 0,3.228547 -0.96146,5.67358 -3.00314,7.637079 -2.16701,2.084062 -4.75635,3.061983 -7.98611,3.016239 -0.50578,-0.0072 -1.04378,-0.02772 -1.19547,-0.04578 z m 3.80441,-2.004531 c 0.86633,-0.230587 1.49731,-0.601934 2.1829,-1.284795 1.36297,-1.35747 1.96101,-3.397399 1.84884,-6.306612 -0.0821,-2.131387 -0.45261,-3.649446 -1.29051,-5.287936 -1.78993,-3.500319 -5.90932,-4.355594 -8.51363,-1.767653 -1.30212,1.293897 -1.98053,3.69211 -1.76059,6.224351 0.18156,2.090804 0.58481,3.591407 1.38073,5.13768 1.17269,2.278234 2.78721,3.397019 4.92281,3.411419 0.40469,0.002 0.95788,-0.05409 1.22945,-0.126454 z m 148.25855,2.013347 c -0.12645,-0.02166 -0.51728,-0.08621 -0.86848,-0.143429 -2.15726,-0.351448 -4.18662,-1.637465 -5.40725,-3.426733 -1.21836,-1.786055 -1.71284,-3.886261 -1.60446,-6.815796 0.0759,-2.03292 0.38128,-3.3487 1.13235,-4.867683 0.70551,-1.42689 1.95404,-2.57583 3.89493,-3.584254 2.18722,-1.136448 4.17246,-1.475846 6.53149,-1.11669 2.99237,0.455598 5.02646,2.262037 5.8033,5.153855 0.15785,0.587678 0.20649,1.088129 0.24242,2.487174 l 0.0451,1.751468 -0.86119,0.160417 c -1.48059,0.275786 -2.64702,0.336462 -7.65552,0.398237 l -4.86308,0.05994 0.0585,0.698142 c 0.13497,1.603893 0.78987,3.364342 1.64984,4.434736 2.19368,2.730394 6.29963,3.044299 9.92064,0.75845 0.59004,-0.372477 1.17782,-0.249061 1.17782,0.247316 0,0.283185 -0.49593,1.683842 -0.67923,1.918267 -0.1599,0.20464 -1.84648,0.967381 -2.83761,1.283368 -0.49274,0.15707 -1.25838,0.350688 -1.70135,0.43027 -0.7674,0.137837 -3.49179,0.256234 -3.97828,0.172896 z m 4.62988,-11.871853 0.97996,-0.05994 0,-0.817578 c 0,-2.245247 -0.86634,-4.088285 -2.27129,-4.8321 -1.92488,-1.019067 -4.09742,-0.669549 -5.45999,0.878429 -0.76728,0.871736 -1.35024,2.552798 -1.39643,4.027002 l -0.0226,0.726214 1.42537,0.04968 c 2.27374,0.07923 5.68045,0.0935 6.74506,0.02843 z m -241.346034,11.034796 0,-0.750629 0.34496,-0.05029 c 0.18956,-0.02761 0.69657,-0.07543 1.1265,-0.106144 1.09591,-0.07831 1.68924,-0.25683 1.82205,-0.548185 0.22671,-0.497833 0.3081,-1.604149 0.36845,-5.01335 0.0709,-3.989038 0,-7.379305 -0.16309,-8.291212 -0.1872,-1.022556 -0.49448,-1.175265 -2.37226,-1.178928 l -1.12661,-0.002 1.1e-4,-0.804686 0,-0.804686 1.37539,-0.208366 c 1.69632,-0.256994 3.2156,-0.634746 4.30331,-1.069943 1.04173,-0.416763 1.63772,-0.449934 1.77124,-0.09863 0.0533,0.140135 0.0647,0.96192 0.0287,2.06921 -0.0328,1.010199 -0.039,1.836727 -0.0143,1.836727 0.0246,0 0.51605,-0.581572 1.09182,-1.29238 1.89934,-2.344844 2.74175,-2.814175 4.90731,-2.734254 0.74112,0.0273 1.22749,0.09073 1.45729,0.189861 0.3429,0.147976 0.34485,0.151815 0.33931,0.682306 0,0.293408 -0.041,0.740397 -0.0852,0.993295 -0.0441,0.25291 -0.13116,1.256469 -0.19376,2.230141 l -0.11394,1.770312 -0.65161,0 -0.65161,0 -0.21831,-0.411745 c -0.48331,-0.910882 -1.27768,-1.44168 -2.15458,-1.439473 -1.25203,0.003 -2.52858,0.935093 -3.09686,2.261124 -0.3819,0.890674 -0.48063,1.847441 -0.52969,5.127458 -0.0493,3.334793 0.0657,5.592839 0.3117,6.111917 0.23462,0.494364 1.24196,0.76389 2.86018,0.765214 l 0.85063,8.21e-4 0,0.759825 0,0.759795 -5.79365,-8.32e-4 -5.79375,-8.31e-4 0,-0.750619 z m 23.11446,0.660538 c -3.01506,-0.547118 -5.42428,-2.631344 -6.45748,-5.586434 -0.4791,-1.370288 -0.59979,-2.210712 -0.60472,-4.209649 -0.0102,-1.979264 0.0811,-2.557181 0.59086,-3.96529 0.44286,-1.22341 1.08812,-2.197903 2.15458,-3.253917 1.93249,-1.91364 4.30228,-2.804908 7.45815,-2.804908 3.03375,0 5.37101,0.884269 7.09412,2.683974 1.42743,1.490924 2.14854,3.220911 2.32804,5.585419 0.20435,2.691928 -0.28275,5.102476 -1.39653,6.912272 -0.53441,0.868545 -1.65856,2.085888 -2.55085,2.762406 -1.22247,0.926882 -3.10178,1.686666 -4.73305,1.913558 -0.94534,0.131493 -3.06483,0.111059 -3.88312,-0.03746 z m 4.21023,-1.835505 c 1.86915,-0.396195 3.29996,-1.896623 3.84658,-4.033653 0.77612,-3.03496 0.22057,-7.107502 -1.28804,-9.441629 -0.77509,-1.19925 -1.74518,-1.962822 -3.00357,-2.364262 -1.74743,-0.557432 -3.56865,-0.09473 -4.9072,1.246913 -0.68662,0.688126 -1.04481,1.351497 -1.40957,2.609883 -0.72326,2.495827 -0.30872,6.091462 0.9973,8.650676 0.75034,1.470345 1.57521,2.365584 2.6819,2.910331 1.04307,0.513537 2.01941,0.647104 3.0826,0.421741 z M 219.13372,45.74609 c -3.41575,-0.435843 -6.06327,-2.659311 -7.10664,-5.968395 -0.39812,-1.262655 -0.53584,-2.291504 -0.53708,-4.012931 0,-1.214008 0.04,-1.75892 0.18268,-2.438291 0.70499,-3.353205 2.97104,-5.88561 6.24924,-6.983673 2.86081,-0.958226 6.73727,-0.674712 9.12134,0.667086 0.88377,0.497401 2.18619,1.73092 2.7755,2.628449 1.42867,2.176329 1.85593,5.795775 1.04523,8.854976 -0.95521,3.604719 -4.00085,6.38288 -7.80004,7.11525 -0.8851,0.170608 -3.0714,0.247112 -3.93023,0.137529 z m 3.97232,-1.989207 c 1.23591,-0.362984 2.44862,-1.371377 3.02676,-2.516652 1.08422,-2.147746 1.19875,-5.812053 0.27332,-8.740202 -0.2839,-0.898011 -0.94988,-2.191098 -1.44519,-2.805892 -1.99878,-2.481038 -5.45907,-2.68027 -7.61591,-0.438491 -0.52917,0.54992 -1.14784,1.812977 -1.43173,2.922515 -0.179,0.699609 -0.21112,1.055326 -0.20773,2.299099 0.0103,1.712991 0.17119,2.814985 0.65121,4.308721 0.73629,2.290529 1.86679,3.853153 3.34041,4.616898 0.92482,0.479349 2.44472,0.63719 3.40886,0.354004 z m 18.65935,1.839691 c -0.71361,-1.876968 -3.41348,-8.286655 -5.14849,-12.222879 -0.66887,-1.517412 -1.35785,-3.131384 -1.53099,-3.586614 -0.62689,-1.647162 -1.1149,-2.098245 -2.39915,-2.217608 l -0.6664,-0.06189 0,-0.873306 0,-0.873296 1.3564,0.06404 c 1.74693,0.08242 6.06419,0.08231 7.58131,0 l 1.17835,-0.06404 0,0.872793 0,0.872804 -0.98857,0.06045 c -1.1223,0.06856 -1.58691,0.173308 -1.79547,0.40455 -0.1323,0.146715 -0.12183,0.231182 0.12173,0.988102 0.3236,1.005335 4.69362,11.909385 4.77305,11.909385 0.0677,0 3.62963,-8.587781 4.21516,-10.162063 0.22579,-0.606962 0.49161,-1.386853 0.59075,-1.733087 l 0.18024,-0.629501 -0.20158,-0.214504 c -0.20866,-0.222221 -0.70817,-0.338648 -2.06714,-0.481863 l -0.64382,-0.06784 -0.0277,-0.688638 c -0.0143,-0.378759 0,-0.787752 0.0287,-0.908859 l 0.0554,-0.220211 1.03926,0.06404 c 1.3292,0.0819 4.64324,0.08119 6.10494,-8.31e-4 l 1.13019,-0.06363 -0.0267,0.858928 -0.0267,0.858918 -0.75825,0.108145 c -1.11788,0.159409 -1.25048,0.288225 -2.15365,2.091718 -2.47357,4.939157 -4.99876,10.54621 -6.90322,15.328143 l -0.31129,0.781705 -1.30663,0.02545 -1.30662,0.02545 -0.0924,-0.243354 z m 32.09879,-0.612392 0,-0.804676 1.11264,0 c 1.25633,0 1.65228,-0.118972 1.88342,-0.565869 0.22754,-0.44001 0.33069,-3.478274 0.29763,-8.768519 -0.0267,-4.305109 -0.0483,-4.913621 -0.1833,-5.212623 -0.20116,-0.445347 -0.53061,-0.533961 -1.98749,-0.534628 l -1.1301,-8.3e-4 0.0267,-0.795964 0.0267,-0.795972 1.20759,-0.205883 c 1.60662,-0.273927 2.99474,-0.626483 4.18395,-1.062572 1.01392,-0.371871 1.63659,-0.450622 1.81968,-0.230084 0.077,0.09278 0.0883,0.543475 0.042,1.62952 l -0.0636,1.501248 1.12402,-1.008772 c 2.1162,-1.899127 2.48722,-2.071664 4.59736,-2.137893 3.06495,-0.09617 4.62323,0.616405 6.05383,2.768442 l 0.41761,0.628084 0.33305,-0.31451 c 2.28164,-2.154694 2.87045,-2.547584 4.37536,-2.919989 0.72388,-0.179116 0.99103,-0.198329 2.20713,-0.158589 1.54422,0.0505 2.10111,0.187346 3.17691,0.780864 0.7641,0.421568 1.80296,1.464732 2.18569,2.194701 0.16215,0.309296 0.38764,0.930053 0.50115,1.379465 0.20413,0.807939 0.20609,0.878438 0.1795,6.288979 -0.0267,5.41867 0.0195,6.569568 0.28143,6.988693 0.17992,0.288195 0.78309,0.473478 1.72464,0.529793 0.51543,0.03079 0.91981,0.09986 0.98867,0.168739 0.15365,0.153663 0.15498,1.210303 0,1.354832 -0.0842,0.07933 -1.07149,0.108391 -3.68854,0.108391 l -3.57358,0 0.0473,-0.873666 c 0.0257,-0.480508 0.0996,-2.495724 0.16432,-4.478271 0.12654,-3.894904 0.0339,-7.261811 -0.2336,-8.513507 -0.38528,-1.801912 -1.70637,-2.967324 -3.48973,-3.078588 -1.36893,-0.08539 -2.533,0.346048 -3.49549,1.29553 -0.7052,0.6957 -1.03516,1.345595 -1.15155,2.267693 -0.12706,1.008013 -0.21788,8.201552 -0.12224,9.683043 0.0759,1.165659 0.0996,1.286314 0.30606,1.49076 0.23574,0.234158 1.04624,0.416465 2.45416,0.552074 l 0.66671,0.06415 0,0.795367 0,0.795357 -5.42591,0 -5.42592,0 0,-0.797737 0,-0.797739 1.28107,-0.02997 c 1.92838,-0.04506 1.99089,-0.125562 2.12544,-2.742876 0.1129,-2.197707 0.10929,-7.508366 -0.0103,-8.463133 -0.19376,-1.606816 -0.6279,-2.531307 -1.53806,-3.275481 -0.86601,-0.70819 -2.19697,-1.01414 -3.36062,-0.772551 -1.19526,0.248116 -2.52253,1.195267 -3.13832,2.239407 -0.52949,0.897981 -0.55967,1.262986 -0.55967,6.777114 0,4.520013 0.0133,4.955014 0.16576,5.349598 0.20691,0.536002 0.33695,0.586929 2.01838,0.790061 l 1.26455,0.152759 0,0.785269 0,0.785268 -5.33395,0 -5.33396,0 0,-0.804697 z M 78.477526,45.604857 c -2.89857,-0.509513 -5.22475,-2.385147 -6.30784,-5.086077 -0.45251,-1.128289 -0.63222,-2.116043 -0.69052,-3.794292 -0.0873,-2.516322 0.2337,-4.312672 1.08114,-6.04772 0.38313,-0.784375 0.59158,-1.081016 1.17259,-1.669033 0.81696,-0.826845 1.91719,-1.572096 3.25778,-2.206914 1.69961,-0.804861 3.23224,-1.077465 5.16308,-0.918352 1.62622,0.134008 2.68756,0.471908 3.78265,1.204422 0.91498,0.61192 1.61607,1.413056 2.12153,2.424291 0.65501,1.31027 0.78423,1.920577 0.83964,3.965732 l 0.0472,1.758591 -0.44747,0.101298 c -1.61739,0.366289 -3.5543,0.470944 -8.74734,0.472606 -3.81395,8.32e-4 -4.0693,0.0114 -4.06879,0.162233 0,0.409548 0.28522,1.972582 0.46339,2.552009 0.68631,2.230652 2.22109,3.79774 4.36417,4.455907 1.88251,0.578154 4.29111,0.163167 6.39632,-1.102066 0.82117,-0.493554 1.07806,-0.549981 1.31443,-0.28879 0.22096,0.244134 0.1835,0.605363 -0.15426,1.487187 l -0.2994,0.781687 -0.94781,0.476064 c -1.01575,0.510263 -2.29899,0.956348 -3.41245,1.186246 -0.98724,0.203872 -3.96042,0.255095 -4.92846,0.08498 z m 5.98589,-11.69361 0.43928,-0.06024 -0.0616,-0.946884 c -0.18772,-2.90281 -1.2627,-4.49381 -3.40918,-5.045403 -2.86603,-0.736538 -5.30316,1.417941 -5.61424,4.963173 -0.0308,0.354054 -0.0749,0.734957 -0.0975,0.846448 -0.0379,0.190661 0,0.204609 0.5804,0.234887 1.18675,0.06148 7.72563,0.06784 8.16243,0.0082 z m 98.414474,3.661865 c -0.22939,-0.255198 -0.18464,-0.488473 0.42479,-2.213554 l 0.50034,-1.416833 6.05855,-0.0082 6.05834,-0.0082 0.0873,0.2467 c 0.0708,0.19952 0.0195,0.414885 -0.26132,1.126237 -0.1915,0.483752 -0.44623,1.217118 -0.56622,1.629705 -0.11987,0.412584 -0.23523,0.767347 -0.25627,0.788377 -0.0206,0.02105 -0.96311,-0.0117 -2.09341,-0.07276 -1.98145,-0.106912 -7.13487,-0.0704 -8.99849,0.06373 -0.71391,0.05141 -0.79653,0.03972 -0.95315,-0.134481 z M 67.526256,22.752331 c -0.76155,-0.159717 -1.38812,-0.651434 -1.69725,-1.331965 -0.19326,-0.425456 -0.23113,-1.533116 -0.0719,-2.106374 0.13568,-0.488505 0.82414,-1.203335 1.35691,-1.408941 0.51265,-0.197845 1.55367,-0.216259 2.07268,-0.03675 0.45303,0.156742 1.02386,0.670052 1.2819,1.152592 0.28911,0.540991 0.28993,1.954786 0,2.48932 -0.25331,0.468983 -0.72162,0.918394 -1.13842,1.092183 -0.4248,0.177176 -1.32058,0.251534 -1.80521,0.149856 z"
       id="path2995"
       inkscape:connector-curvature="0" />
  </g>
</svg>
